<?xml version="1.0" encoding="UTF-8" standalone="no"?>
<!-- Created with Inkscape (http://www.inkscape.org/) -->

<svg
   width="274.11719"
   height="274.37115"
   viewBox="0 0 274.11719 274.37115"
   version="1.1"
   id="svg1"
   xmlns="http://www.w3.org/2000/svg"
   xmlns:svg="http://www.w3.org/2000/svg"
   fill="currentColor"
   stroke="none">
  <defs
     id="defs1" />
  <g
     id="layer1"
     transform="translate(-118.94141,-118.84038)">
    <path
       d="m 256,118.94141 c -37.81969,1.61412 -81.44625,22.45693 -106.5788,45.3297 -25.94887,23.61568 -30.47979,53.90916 -30.47979,91.72889 0,75.63945 60.77356,133.50752 137.05859,137.05859 37.77878,1.7586 74.16191,-11.67564 96.86338,-38.84555 25.14278,-30.09174 40.19521,-60.39332 40.19521,-98.21304 0,-37.81973 -13.94916,-73.57458 -40.16453,-96.89409 C 326.0299,135.20928 293.78529,117.32875 256,118.94141 Z m 0,9.40039 c 35.92572,-0.94991 71.50536,10.48754 90.77339,37.14115 24.30275,33.61818 36.88481,56.20586 36.88481,91.48552 0,35.27966 -11.88338,69.86366 -37.36939,90.28885 C 321.90287,366.80088 291.27962,384.62667 256,384.62667 185.44077,384.62667 130.27875,325.91367 128.3418,256 126.38771,185.46774 186.09222,130.19024 256,128.3418 Z"
       id="path1"
       />
  </g>
</svg>
